<svg width="62" height="39" viewBox="0 0 62 39" fill="none" xmlns="http://www.w3.org/2000/svg">
<g id="&#236;&#143;&#152;&#235;&#185;&#133; &#235;&#161;&#156;&#234;&#179;&#160;">
<path id="Vector" fill-rule="evenodd" clip-rule="evenodd" d="M33.027 3.90924C34.1614 4.75432 34.1521 6.39462 33.1519 7.39483L27.0969 13.4498C26.654 12.5772 26.1332 11.7339 25.5346 10.9304C24.6895 9.79604 23.0492 9.80526 22.049 10.8055L6.97188 25.8825C3.63686 19.3122 4.71583 11.0767 10.2088 5.58378C16.4313 -0.6387 26.1731 -1.19688 33.027 3.90924Z" fill="#FF521B"/>
<path id="Vector_2" fill-rule="evenodd" clip-rule="evenodd" d="M6.97132 25.8829C7.41425 26.7556 7.93504 27.5988 8.53368 28.4024C9.37876 29.5367 11.0191 29.5275 12.0193 28.5273L27.0964 13.4502C30.4314 20.0206 29.3524 28.256 23.8595 33.749C17.637 39.9714 7.89512 40.5296 1.04123 35.4235C-0.0931095 34.5784 -0.0838853 32.9381 0.916335 31.9379L6.97132 25.8829Z" fill="#FF521B"/>
<path id="Vector_3" d="M50.9807 0.457031H40.0382C38.8315 0.457031 37.7885 1.29935 37.5344 2.47902L33.949 19.127C33.6055 20.7221 34.8212 22.2274 36.4528 22.2274H36.8667L37.5344 19.127C37.7885 17.9473 38.8315 17.105 40.0382 17.105H50.9807C53.6571 17.105 56.1082 18.0681 58.0054 19.6662C60.3759 17.6695 61.8816 14.6814 61.8816 11.3422C61.8816 5.3305 57.0011 0.457031 50.9807 0.457031Z" fill="#8E49FF"/>
<path id="Vector_4" d="M36.4528 38.8752H50.9807C57.0011 38.8752 61.8816 34.0017 61.8816 27.99C61.8816 24.6508 60.3759 21.6628 58.0054 19.666C56.1082 21.2641 53.6571 22.2272 50.9807 22.2272H36.8667L33.949 35.7747C33.6055 37.3698 34.8212 38.8752 36.4528 38.8752Z" fill="#00A8BF"/>
</g>
</svg>
