<svg width="20" height="19" viewBox="0 0 20 19" fill="none" xmlns="http://www.w3.org/2000/svg">
<g id="&#236;&#157;&#184;&#236;&#138;&#164;&#237;&#131;&#128;&#234;&#183;&#184;&#235;&#158;&#168;">
<path id="Vector" d="M10.0349 2.28704C12.5746 2.28704 12.8754 2.29758 13.8742 2.33978C14.8025 2.37846 15.3038 2.52614 15.638 2.64922C16.0798 2.81097 16.3991 3.00788 16.7296 3.32083C17.0638 3.6373 17.268 3.93619 17.4388 4.35463C17.5688 4.67109 17.7247 5.14931 17.7656 6.02487C17.8101 6.97428 17.8213 7.2591 17.8213 9.66074C17.8213 12.0659 17.8101 12.3507 17.7656 13.2966C17.7247 14.1757 17.5688 14.6504 17.4388 14.9669C17.268 15.3853 17.0601 15.6877 16.7296 16.0007C16.3954 16.3171 16.0798 16.5105 15.638 16.6723C15.3038 16.7953 14.7988 16.943 13.8742 16.9817C12.8717 17.0239 12.5709 17.0344 10.0349 17.0344C7.4951 17.0344 7.19434 17.0239 6.19551 16.9817C5.26723 16.943 4.76596 16.7953 4.43178 16.6723C3.98992 16.5105 3.67059 16.3136 3.34012 16.0007C3.00594 15.6842 2.80172 15.3853 2.63092 14.9669C2.50096 14.6504 2.34501 14.1722 2.30417 13.2966C2.25961 12.3472 2.24847 12.0624 2.24847 9.66074C2.24847 7.25558 2.25961 6.97076 2.30417 6.02487C2.34501 5.1458 2.50096 4.67109 2.63092 4.35463C2.80172 3.93619 3.00966 3.63378 3.34012 3.32083C3.6743 3.00436 3.98992 2.81097 4.43178 2.64922C4.76596 2.52614 5.27094 2.37846 6.19551 2.33978C7.19434 2.29758 7.4951 2.28704 10.0349 2.28704ZM10.0349 0.666016C7.45425 0.666016 7.13121 0.676565 6.11753 0.71876C5.10757 0.760956 4.41321 0.915674 3.81169 1.1372C3.18417 1.36928 2.6532 1.6752 2.12594 2.17803C1.59496 2.67735 1.27192 3.18018 1.02685 3.77092C0.792928 4.34408 0.629551 4.99811 0.584994 5.95455C0.540436 6.91802 0.529297 7.22394 0.529297 9.66777C0.529297 12.1116 0.540436 12.4175 0.584994 13.3775C0.629551 14.3339 0.792928 14.9915 1.02685 15.5611C1.27192 16.1554 1.59496 16.6582 2.12594 17.1575C2.6532 17.6568 3.18417 17.9663 3.80798 18.1948C4.41321 18.4164 5.10385 18.5711 6.11382 18.6133C7.1275 18.6555 7.45054 18.666 10.0312 18.666C12.6118 18.666 12.9348 18.6555 13.9485 18.6133C14.9585 18.5711 15.6528 18.4164 16.2543 18.1948C16.8781 17.9663 17.4091 17.6568 17.9364 17.1575C18.4636 16.6582 18.7904 16.1554 19.0317 15.5646C19.2657 14.9915 19.429 14.3374 19.4736 13.381C19.5182 12.421 19.5293 12.1151 19.5293 9.67129C19.5293 7.22745 19.5182 6.92153 19.4736 5.96158C19.429 5.00514 19.2657 4.34759 19.0317 3.77795C18.7978 3.18018 18.4748 2.67735 17.9438 2.17803C17.4165 1.67871 16.8856 1.36928 16.2618 1.14072C15.6565 0.91919 14.9659 0.764472 13.9559 0.722277C12.9385 0.676565 12.6155 0.666016 10.0349 0.666016Z" fill="url(#paint0_linear_3970_1902)"/>
<path id="Vector_2" d="M10.0341 5.04492C7.33839 5.04492 5.15137 7.11603 5.15137 9.66887C5.15137 12.2217 7.33839 14.2928 10.0341 14.2928C12.7298 14.2928 14.9169 12.2217 14.9169 9.66887C14.9169 7.11603 12.7298 5.04492 10.0341 5.04492ZM10.0341 12.6683C8.28523 12.6683 6.86683 11.3251 6.86683 9.66887C6.86683 8.01269 8.28523 6.66946 10.0341 6.66946C11.783 6.66946 13.2014 8.01269 13.2014 9.66887C13.2014 11.3251 11.783 12.6683 10.0341 12.6683Z" fill="url(#paint1_linear_3970_1902)"/>
<path id="Vector_3" d="M16.2515 4.85978C16.2515 5.45756 15.7391 5.93929 15.1116 5.93929C14.4804 5.93929 13.9717 5.45404 13.9717 4.85978C13.9717 4.26201 14.4841 3.78027 15.1116 3.78027C15.7391 3.78027 16.2515 4.26553 16.2515 4.85978Z" fill="url(#paint2_linear_3970_1902)"/>
</g>
<defs>
<linearGradient id="paint0_linear_3970_1902" x1="10.0293" y1="0.666016" x2="10.0293" y2="18.666" gradientUnits="userSpaceOnUse">
<stop stop-color="#6C3DC4"/>
<stop offset="0.364583" stop-color="#EA2C7D"/>
<stop offset="1" stop-color="#F49155"/>
</linearGradient>
<linearGradient id="paint1_linear_3970_1902" x1="10.0341" y1="5.04492" x2="10.0341" y2="14.2928" gradientUnits="userSpaceOnUse">
<stop stop-color="#6C3DC4"/>
<stop offset="0.364583" stop-color="#EA2C7D"/>
<stop offset="1" stop-color="#F49155"/>
</linearGradient>
<linearGradient id="paint2_linear_3970_1902" x1="15.1116" y1="3.78027" x2="15.1116" y2="5.93929" gradientUnits="userSpaceOnUse">
<stop stop-color="#6C3DC4"/>
<stop offset="0.364583" stop-color="#EA2C7D"/>
<stop offset="1" stop-color="#F49155"/>
</linearGradient>
</defs>
</svg>
