<svg width="61" height="38" viewBox="0 0 61 38" fill="none" xmlns="http://www.w3.org/2000/svg">
<path fill-rule="evenodd" clip-rule="evenodd" d="M32.4465 3.5645C33.5577 4.39233 33.5486 5.99915 32.5688 6.97895L26.6374 12.9103C26.2035 12.0555 25.6934 11.2295 25.1069 10.4423C24.2791 9.33115 22.6723 9.34019 21.6925 10.32L6.92306 25.0894C3.6561 18.6531 4.71305 10.5857 10.0939 5.20486C16.1894 -0.89063 25.7325 -1.43742 32.4465 3.5645Z" fill="#FF521B"/>
<path fill-rule="evenodd" clip-rule="evenodd" d="M6.923 25.0894C7.3569 25.9442 7.86706 26.7703 8.45349 27.5574C9.28132 28.6686 10.8881 28.6596 11.868 27.6798L26.6373 12.9104C29.9043 19.3467 28.8474 27.414 23.4665 32.7949C17.371 38.8904 7.82795 39.4372 1.11394 34.4353C0.00275001 33.6074 0.0117859 32.0006 0.991593 31.0208L6.923 25.0894Z" fill="#FF521B"/>
<path d="M50.0338 0.182739H39.3146C38.1325 0.182739 37.1108 1.00786 36.8619 2.16346L33.3497 18.4717C33.0132 20.0342 34.204 21.5089 35.8024 21.5089H36.2078L36.8619 18.4717C37.1108 17.3161 38.1325 16.4909 39.3146 16.4909H50.0338C52.6555 16.4909 55.0566 17.4344 56.9151 18.9999C59.2372 17.0439 60.7122 14.1169 60.7122 10.8458C60.7122 4.95675 55.9313 0.182739 50.0338 0.182739Z" fill="#8E49FF"/>
<path d="M35.8024 37.8172H50.0338C55.9313 37.8172 60.7122 33.0431 60.7122 27.1541C60.7122 23.883 59.2372 20.956 56.9151 19C55.0566 20.5655 52.6555 21.509 50.0338 21.509H36.2078L33.3497 34.78C33.0132 36.3425 34.204 37.8172 35.8024 37.8172Z" fill="#00A8BF"/>
</svg>
