<svg width="14" height="14" viewBox="0 0 14 14" fill="none" xmlns="http://www.w3.org/2000/svg">
<path d="M4.49017 6.49011L1.28017 9.67011C1.18644 9.76308 1.11205 9.87368 1.06128 9.99554C1.01051 10.1174 0.984375 10.2481 0.984375 10.3801C0.984375 10.5121 1.01051 10.6428 1.06128 10.7647C1.11205 10.8865 1.18644 10.9971 1.28017 11.0901L3.40017 13.2101C3.49314 13.3038 3.60374 13.3782 3.7256 13.429C3.84746 13.4798 3.97816 13.5059 4.11017 13.5059C4.24219 13.5059 4.37289 13.4798 4.49475 13.429C4.61661 13.3782 4.72721 13.3038 4.82017 13.2101L8.00017 10.0001" stroke="black" stroke-linecap="round" stroke-linejoin="round"/>
<path d="M10.49 7.51006L13.67 4.33006C13.7637 4.2371 13.8381 4.1265 13.8889 4.00464C13.9396 3.88278 13.9658 3.75207 13.9658 3.62006C13.9658 3.48805 13.9396 3.35734 13.8889 3.23548C13.8381 3.11363 13.7637 3.00302 13.67 2.91006L11.58 0.790061C11.487 0.696333 11.3764 0.621938 11.2546 0.57117C11.1327 0.520401 11.002 0.494263 10.87 0.494263C10.738 0.494263 10.6073 0.520401 10.4854 0.57117C10.3635 0.621938 10.2529 0.696333 10.16 0.790061L6.97998 4.00006" stroke="black" stroke-linecap="round" stroke-linejoin="round"/>
<path d="M9.49023 5L5.49023 9" stroke="black" stroke-linecap="round" stroke-linejoin="round"/>
</svg>
