<svg width="14" height="14" viewBox="0 0 14 14" fill="none" xmlns="http://www.w3.org/2000/svg">
<path d="M4.49017 6.48999L1.28017 9.66999C1.18644 9.76295 1.11205 9.87355 1.06128 9.99541C1.01051 10.1173 0.984375 10.248 0.984375 10.38C0.984375 10.512 1.01051 10.6427 1.06128 10.7646C1.11205 10.8864 1.18644 10.997 1.28017 11.09L3.40017 13.21C3.49314 13.3037 3.60374 13.3781 3.7256 13.4289C3.84746 13.4797 3.97816 13.5058 4.11017 13.5058C4.24219 13.5058 4.37289 13.4797 4.49475 13.4289C4.61661 13.3781 4.72721 13.3037 4.82017 13.21L8.00017 9.99999" stroke="black" stroke-linecap="round" stroke-linejoin="round"/>
<path d="M10.49 7.50994L13.67 4.32994C13.7637 4.23698 13.8381 4.12637 13.8889 4.00452C13.9396 3.88266 13.9658 3.75195 13.9658 3.61994C13.9658 3.48793 13.9396 3.35722 13.8889 3.23536C13.8381 3.1135 13.7637 3.0029 13.67 2.90994L11.58 0.789939C11.487 0.696211 11.3764 0.621816 11.2546 0.571048C11.1327 0.520279 11.002 0.494141 10.87 0.494141C10.738 0.494141 10.6073 0.520279 10.4854 0.571048C10.3635 0.621816 10.2529 0.696211 10.16 0.789939L6.97998 3.99994" stroke="black" stroke-linecap="round" stroke-linejoin="round"/>
<path d="M9.49023 5L5.49023 9" stroke="black" stroke-linecap="round" stroke-linejoin="round"/>
</svg>
